<svg width="1440" height="1024" viewBox="0 0 1440 1024" fill="none" xmlns="http://www.w3.org/2000/svg">
<g clip-path="url(#clip0_2_2)">
<rect width="1440" height="1024" fill="white"/>
<path d="M93.7804 703.756L16.4592 711.769C16.1741 711.787 15.7376 711.956 15.4347 712.258L-11.8245 739.49C-12.1274 739.793 -12.2966 740.229 -12.3322 740.799L-12.7219 765.245C-12.7753 766.1 -12.107 766.769 -11.1003 766.565L55.4851 755.378C55.9216 755.209 56.3582 755.04 56.661 754.738L72.2676 732.197L72.4191 732.046L95.0457 706.234C95.8207 705.193 95.0722 703.535 93.7804 703.756Z" fill="#172B4D"/>
<path d="M70.7692 570.176L-16.4775 582.224L-41.0636 618.279L-24.8924 708.241L-0.460048 726.601L50.1335 719.628L60.8631 692.872L88.4691 662.888L70.7692 570.176Z" fill="white" stroke="#36B37E" stroke-width="1.55764" stroke-miterlimit="10" stroke-linejoin="round"/>
<path d="M60.863 692.871L19.8893 614.054L70.7691 570.175L88.4689 662.887L60.863 692.871Z" fill="#C5E9DA" stroke="#36B37E" stroke-width="1.55764" stroke-miterlimit="10" stroke-linejoin="round"/>
<path d="M50.1339 719.628L42.2874 656.9L60.8635 692.872L50.1339 719.628Z" fill="white" stroke="#36B37E" stroke-width="1.55764" stroke-miterlimit="10" stroke-linejoin="round"/>
<path d="M-41.0635 618.279L19.8895 614.055" stroke="#36B37E" stroke-width="1.55764" stroke-miterlimit="10" stroke-linejoin="round"/>
<path d="M31.8181 603.742L14.9982 606.11L9.59029 614.72L26.979 627.554L31.8181 603.742Z" fill="#C5E9DA" stroke="#36B37E" stroke-width="1.55764" stroke-miterlimit="10" stroke-linejoin="round"/>
<mask id="mask0_2_2" style="mask-type:alpha" maskUnits="userSpaceOnUse" x="-48" y="562" width="117" height="63">
<path d="M-3.65411 597.747L7.53597 600.468L15.5801 592.165L26.2 594.92L18.1736 602.939L28.6599 605.561L20.7672 613.713L10.1295 611.242L-0.793247 608.789L-9.27389 617.261L-20.7668 614.843L-29.5504 623.618L-41.6135 621.234L-32.3934 612.291L-23.6099 603.516L-12.1348 606.219L-3.65411 597.747Z" fill="#C5E9DA"/>
<path d="M4.80893 589.559L12.9867 581.39L23.6066 584.146L15.5803 592.164L4.80893 589.559Z" fill="#36B37E"/>
<path d="M-14.8442 595.026L-6.2299 586.688L4.80873 589.56L-3.65412 597.747L-14.8442 595.026Z" fill="#36B37E"/>
<path d="M-17.5536 583.833L-8.93933 575.495L2.23295 578.501L-6.22991 586.688L-17.5536 583.833Z" fill="#36B37E"/>
<path d="M36.4011 597.56L26.1999 594.92L33.9411 586.919L23.6063 584.146L31.4812 576.279L41.5309 579.07L51.2956 581.878L43.9909 589.71L53.7733 592.233L63.4043 594.908L56.251 602.588L46.4686 600.065L38.7273 608.066L28.6598 605.56L36.4011 597.56Z" fill="#5E78A5"/>
<path d="M48.7949 610.571L41.3387 618.554L31.1198 616.2L38.7274 608.065L48.7949 610.571Z" fill="#36B37E"/>
<path d="M68.2132 577.006L61.0599 584.686L51.2953 581.878L58.7336 574.18L68.2132 577.006Z" fill="#36B37E"/>
<path d="M12.9859 581.391L2.23231 578.502L10.2586 570.483L18.4186 562.599L28.8871 565.506L39.0526 568.715L31.4806 576.28L21.0122 573.373L12.9859 581.391Z" fill="#36B37E"/>
<path d="M31.1196 616.201L23.3606 624.486L12.5714 622.167L20.767 613.712L31.1196 616.201Z" fill="#36B37E"/>
</mask>
<g mask="url(#mask0_2_2)">
<path d="M-16.9125 582.659L70.0123 570.932L28.7966 605.485L14.1709 607.499L8.64282 615.646L-41.3022 618.518L-16.9125 582.659Z" fill="#36B37E" stroke="#36B37E" stroke-width="1.55764" stroke-miterlimit="10" stroke-linejoin="round"/>
</g>
<path d="M363.531 724.423L367.542 716.078C367.644 715.867 367.817 715.698 368.03 715.601L428.722 688.067C429.017 687.933 429.358 687.951 429.638 688.114L459.959 705.795C460.73 706.245 460.571 707.402 459.708 707.627L382.934 727.634C382.819 727.664 382.701 727.673 382.583 727.662L364.333 725.852C363.642 725.783 363.23 725.049 363.531 724.423Z" fill="#172B4D"/>
<g clip-path="url(#clip1_2_2)">
<path d="M367.165 659.843L350.146 705.929L369.986 719.127L427.573 691.775L445.237 668.003L402.731 654.713L367.165 659.843Z" fill="white" stroke="#36B37E" stroke-width="1.63467" stroke-miterlimit="10" stroke-linejoin="round"/>
<path d="M387.19 678.382L389.083 682.368L427.573 691.775L430.205 688.173L445.237 668.003L402.731 654.713L387.19 678.382Z" fill="#C5E9DA" stroke="#36B37E" stroke-width="1.63467" stroke-miterlimit="10" stroke-linejoin="round"/>
<path d="M402.731 654.713L389.342 676.816L350.145 705.929" fill="white"/>
<path d="M402.731 654.713L389.342 676.816L350.145 705.929" stroke="#36B37E" stroke-width="1.63467" stroke-miterlimit="10" stroke-linejoin="round"/>
<path d="M382.217 682.01L384.041 671.372L394.185 668.725L389.083 682.369L382.217 682.01Z" fill="#172B4D" stroke="#36B37E" stroke-width="1.63467" stroke-miterlimit="10" stroke-linejoin="round"/>
<path d="M427.573 691.775L389.083 682.368" stroke="#36B37E" stroke-width="1.63467" stroke-miterlimit="10" stroke-linejoin="round"/>
<path d="M414.258 688.508L420.947 683.159L420.224 690.018L415.103 693.717L414.258 688.508Z" fill="white" stroke="#36B37E" stroke-width="1.63467" stroke-miterlimit="10" stroke-linejoin="round"/>
<path d="M420.947 683.159L419.298 659.874" stroke="#36B37E" stroke-width="1.63467" stroke-miterlimit="10" stroke-linejoin="round"/>
<mask id="mask1_2_2" style="mask-type:alpha" maskUnits="userSpaceOnUse" x="349" y="681" width="80" height="39">
<path d="M350.145 705.929L382.217 682.01L393.524 683.336L427.573 691.775L423.439 693.739L369.986 719.127L350.145 705.929Z" fill="white" stroke="#36B37E" stroke-width="1.63467" stroke-miterlimit="10" stroke-linejoin="round"/>
</mask>
<g mask="url(#mask1_2_2)">
<path d="M383.141 693.535L387.534 684.209L397.322 683.859L401.433 674.893L392.103 675.252L396.399 666.199L386.796 666.461L382.5 675.515L377.834 684.744L367.775 684.997L363.012 694.499L352.583 694.927L347.355 704.876L357.968 704.36L368.309 703.746L373.169 693.973L383.141 693.535Z" fill="#36B37E"/>
<path d="M392.928 693.184L402.628 692.649L406.652 683.499L397.321 683.858L392.928 693.184Z" fill="#36B37E"/>
<path d="M378.466 703.221L388.535 702.51L392.928 693.184L383.141 693.535L378.466 703.221Z" fill="#C5E9DA"/>
<path d="M383.86 712.196L393.744 711.573L398.235 701.975L388.535 702.51L383.86 712.196Z" fill="#36B37E"/>
<path d="M373.791 712.906L378.466 703.22L368.309 703.746L363.45 713.52L358.396 723.837L368.835 722.952L379.176 722.339L383.86 712.196L373.791 712.906Z" fill="#36B37E"/>
<path d="M405.633 666.111L401.433 674.893L410.764 674.533L406.652 683.499L415.983 683.139L419.91 674.261L423.741 665.655L414.779 665.839L418.697 657.418L422.431 649.084L413.654 649.181L409.736 657.602L400.502 657.69L396.399 666.199L405.633 666.111Z" fill="#36B37E"/>
<path d="M402.628 692.65L398.235 701.975L407.75 701.528L417.177 700.896L421.202 691.746L425.129 682.868L415.983 683.14L411.959 692.29L402.628 692.65Z" fill="#36B37E"/>
<path d="M399.226 720.733L403.629 710.951L393.744 711.573L389.342 721.356L399.226 720.733Z" fill="#36B37E"/>
<path d="M374.492 732.481L384.658 731.499L389.342 721.356L379.176 722.339L374.492 732.481Z" fill="#36B37E"/>
</g>
</g>
<path d="M1316.99 843.411L1498.65 814.181L1599.2 798.002L1542.97 739.21L1278.64 781.742L1286.97 809.28L1316.99 843.411Z" fill="#172B4D"/>
<path d="M1480.32 362.658L1534.39 395.212L1384.17 819.308L1316.99 843.411L1286.97 809.28L1278.64 781.743L1377.23 539.675L1401.17 517.489L1391.51 494.52L1435.87 381.27L1480.32 362.658Z" fill="white"/>
<mask id="mask2_2_2" style="mask-type:alpha" maskUnits="userSpaceOnUse" x="1278" y="362" width="257" height="482">
<path d="M1480.32 362.658L1534.39 395.212L1384.17 819.308L1316.99 843.411L1286.97 809.28L1278.64 781.743L1377.23 539.675L1401.17 517.489L1391.51 494.52L1435.87 381.27L1480.32 362.658Z" fill="white"/>
</mask>
<g mask="url(#mask2_2_2)">
<path d="M1369.47 582.635L1376.96 560.803L1398 557.647L1405.15 536.557L1384.33 539.677L1391.56 519.035L1370.71 521.931L1363.07 542.87L1355.29 564.29L1333.35 567.59L1325 589.789L1302.25 593.68L1293.37 616.88L1316.54 612.695L1339.3 608.804L1347.35 586.194L1369.47 582.635Z" fill="#C5E9DA"/>
<path d="M1390.88 578.96L1411.89 575.58L1418.78 554.303L1398 557.647L1390.88 578.96Z" fill="#36B37E"/>
<path d="M1361.57 604.762L1383.43 601.015L1390.88 578.96L1369.47 582.635L1361.57 604.762Z" fill="#36B37E"/>
<path d="M1375.82 623.553L1397.65 619.583L1404.84 597.34L1383.43 601.015L1375.82 623.553Z" fill="#172B4D"/>
<path d="M1353.59 627.818L1361.57 604.762L1339.3 608.804L1330.87 631.932L1322.33 655.767L1345.42 651.134L1368.1 646.797L1375.82 623.553L1353.59 627.818Z" fill="#172B4D"/>
<path d="M1411.96 516.21L1405.15 536.557L1425.52 533.509L1418.78 554.303L1439.15 551.255L1445.7 530.72L1451.88 510.704L1432.14 513.421L1438.58 493.592L1444.9 474.469L1425.32 476.704L1418.81 496.086L1398.63 498.875L1391.56 519.035L1411.96 516.21Z" fill="#36B37E"/>
<path d="M1405.29 479.01L1385.07 481.575L1377.96 501.512L1398.63 498.875L1405.29 479.01Z" fill="#172B4D"/>
<path d="M1411.89 575.58L1404.84 597.34L1425.81 593.737L1446.3 589.983L1452.74 568.778L1459.04 548.055L1439.15 551.255L1432.67 572.237L1411.89 575.58Z" fill="#36B37E"/>
<path d="M1411.91 638.374L1419.03 615.685L1397.65 619.583L1390.12 642.568L1411.91 638.374Z" fill="#36B37E"/>
<path d="M1360.01 670.56L1382.43 666.035L1390.12 642.568L1368.1 646.797L1360.01 670.56Z" fill="#36B37E"/>
<path d="M1377.96 501.512L1357.08 504.185L1349.37 524.677L1370.71 521.932L1377.96 501.512Z" fill="#36B37E"/>
</g>
<path d="M1480.32 362.658L1316.99 843.411L1384.17 819.308L1534.39 395.212L1480.32 362.658Z" fill="#C5E9DA"/>
<path d="M1480.32 362.658L1534.39 395.212L1384.17 819.308L1316.99 843.411L1286.97 809.28L1278.64 781.743L1377.23 539.675L1401.17 517.489L1391.51 494.52L1435.87 381.27L1480.32 362.658Z" stroke="#36B37E" stroke-width="1.57158" stroke-miterlimit="10" stroke-linejoin="round"/>
<path d="M1422.1 533.602L1443.03 549.714L1415.1 554.208L1422.1 533.602Z" fill="white"/>
<path d="M1479.86 549.288L1443.03 549.714L1422.1 533.602L1401.17 517.489" stroke="#36B37E" stroke-width="1.57158" stroke-miterlimit="10" stroke-linejoin="round"/>
<path d="M1443.03 549.714L1415.1 554.208L1386.98 637.342" stroke="#36B37E" stroke-width="1.57158" stroke-miterlimit="10" stroke-linejoin="round"/>
<path d="M1515.29 448.934L1468.82 396.595L1425.15 408.664" stroke="#36B37E" stroke-width="1.57158" stroke-miterlimit="10" stroke-linejoin="round"/>
<path d="M1438.08 404.979L1428.88 399.125" stroke="#36B37E" stroke-width="1.57158" stroke-miterlimit="10" stroke-linejoin="round"/>
<path d="M1379.98 657.949L1343.72 622.072L1278.64 781.743L1286.97 809.28L1316.99 843.411L1379.98 657.949Z" fill="white" stroke="#36B37E" stroke-width="1.57158" stroke-miterlimit="10" stroke-linejoin="round"/>
<path d="M1435.05 678.196L1375.78 670.313L1371.03 649.306L1382.16 654.39L1435.05 678.196Z" fill="#172B4D"/>
</g>
<defs>
<clipPath id="clip0_2_2">
<rect width="1440" height="1024" fill="white"/>
</clipPath>
<clipPath id="clip1_2_2">
<rect width="105.273" height="67.1849" fill="white" transform="translate(333 675.165) rotate(-25.4057)"/>
</clipPath>
</defs>
</svg>
